<svg width="145" height="106" viewBox="0 0 145 106" fill="none" xmlns="http://www.w3.org/2000/svg">
<rect width="145" height="106" rx="8" fill="#098FF2"/>
<g clip-path="url(#clip0_667_1684)">
<path d="M85.2013 16H59.7987C54.6632 16 50.5 20.1631 50.5 25.2987V50.7014C50.5 55.8369 54.6632 60.0001 59.7987 60.0001H85.2013C90.3368 60.0001 94.5 55.8369 94.5 50.7014V25.2987C94.5 20.1631 90.3368 16 85.2013 16Z" fill="url(#paint0_linear_667_1684)"/>
<path d="M65.7433 26.9962C65.6777 26.9994 65.6136 27.0166 65.5553 27.0467C64.6092 27.535 63.8156 28.2741 63.2614 29.1832C62.7071 30.0923 62.4136 31.1364 62.413 32.2011C62.413 35.4003 65.0163 38.0036 68.2155 38.0036C68.4401 38.0036 68.6628 37.9861 68.8828 37.9605C68.9296 38.2135 69.0038 38.4628 69.1358 38.6911C69.3373 39.0393 69.6268 39.3285 69.9753 39.5296C70.3238 39.7307 70.719 39.8367 71.1213 39.8369H77.0797C77.9661 39.8369 78.7297 39.1952 78.8846 38.3226C78.9586 37.8981 78.881 37.4611 78.6656 37.088C78.4501 36.7149 78.1104 36.4293 77.7058 36.2812C77.4914 36.2039 77.2644 36.1675 77.0366 36.1739C77.1207 35.6062 77.0509 35.0263 76.8345 34.4947C76.6182 33.9631 76.2631 33.4993 75.8064 33.1517C75.2562 32.735 74.5862 32.5071 73.8961 32.5018C73.186 32.4958 72.4942 32.7264 71.9298 33.1573C71.3655 33.5882 70.9607 34.1948 70.7794 34.8814C70.6994 34.8238 70.603 34.7936 70.5044 34.7952C67.8021 34.7952 65.6186 32.6136 65.6186 29.9094C65.6213 29.1275 65.8111 28.3575 66.1723 27.6636C66.2094 27.592 66.2271 27.5119 66.2234 27.4314C66.2198 27.3509 66.1949 27.2727 66.1514 27.2049C66.1079 27.137 66.0473 27.0818 65.9756 27.0449C65.9039 27.0079 65.8238 26.9905 65.7433 26.9944V26.9962ZM64.9788 28.7902C64.9008 29.1697 64.7038 29.5208 64.7028 29.9113C64.7028 32.8813 66.9487 35.3352 69.8307 35.6707C69.5475 35.8586 69.3101 36.1076 69.1358 36.3994C69.0203 36.5992 68.9461 36.8129 68.8957 37.032C68.672 37.064 68.4456 37.0869 68.2155 37.0869C65.5113 37.0869 63.3297 34.9053 63.3297 32.2011C63.3297 30.8444 64.0254 29.6977 64.9788 28.7902ZM73.8888 33.4193C74.2572 33.4219 74.6196 33.5135 74.9451 33.686C75.2706 33.8586 75.5497 34.1073 75.7586 34.4107C75.9676 34.7142 76.1002 35.0637 76.1452 35.4294C76.1902 35.795 76.1463 36.1662 76.0173 36.5113C76.0169 36.5143 76.0166 36.5174 76.0163 36.5205C75.8024 36.6699 75.6232 36.8637 75.4911 37.0888C75.4605 37.1409 75.4406 37.1985 75.4324 37.2584C75.4242 37.3183 75.4279 37.3793 75.4434 37.4377C75.4588 37.4961 75.4857 37.5509 75.5224 37.5989C75.5591 37.647 75.605 37.6872 75.6573 37.7174C75.7097 37.7477 75.7675 37.7673 75.8274 37.7751C75.8873 37.7829 75.9482 37.7787 76.0066 37.7629C76.0649 37.747 76.1195 37.7198 76.1673 37.6827C76.2151 37.6457 76.255 37.5997 76.2849 37.5471C76.3921 37.3597 76.5623 37.2163 76.7652 37.1425C76.9681 37.0687 77.1906 37.0691 77.3932 37.1437C77.8139 37.2977 78.0596 37.724 77.9817 38.1649C77.9452 38.3774 77.8346 38.5702 77.6694 38.7089C77.5043 38.8475 77.2953 38.9231 77.0797 38.9221H71.1213C70.7942 38.9209 70.4783 38.8029 70.2305 38.5895C69.9826 38.376 69.8191 38.081 69.7693 37.7577C69.7196 37.4344 69.7869 37.104 69.9591 36.8259C70.1314 36.5479 70.3972 36.3403 70.7088 36.2408C70.74 36.4233 70.784 36.6057 70.8463 36.7844C70.865 36.843 70.8952 36.8972 70.9352 36.9439C70.9752 36.9905 71.0242 37.0287 71.0792 37.056C71.1342 37.0834 71.1942 37.0993 71.2556 37.103C71.3169 37.1067 71.3784 37.098 71.4363 37.0775C71.4942 37.057 71.5474 37.025 71.5927 36.9835C71.638 36.942 71.6745 36.8918 71.7001 36.8359C71.7256 36.78 71.7396 36.7195 71.7413 36.6581C71.743 36.5967 71.7323 36.5355 71.7098 36.4783C71.631 36.2532 71.5877 36.0172 71.5815 35.7788C71.5875 35.7387 71.5881 35.6981 71.5833 35.6578C71.5966 35.0565 71.8459 34.4845 72.2775 34.0654C72.709 33.6464 73.2882 33.414 73.8897 33.4184L73.8888 33.4193ZM80.2486 37.0869C80.127 37.093 80.0129 37.1471 79.9312 37.2374C79.8496 37.3276 79.8071 37.4466 79.8132 37.5682C79.8192 37.6897 79.8734 37.8039 79.9636 37.8855C80.0539 37.9672 80.1729 38.0096 80.2944 38.0036H83.9547C84.0762 38.0036 84.1928 37.9553 84.2788 37.8694C84.3647 37.7834 84.413 37.6668 84.413 37.5452C84.413 37.4237 84.3647 37.3071 84.2788 37.2212C84.1928 37.1352 84.0762 37.0869 83.9547 37.0869H80.2953C80.2798 37.0861 80.2642 37.0861 80.2486 37.0869ZM64.7294 38.9184C63.9446 38.9122 63.1847 39.1943 62.5943 39.7115C62.0038 40.2286 61.6239 40.9445 61.5266 41.7234C61.2041 41.7826 60.8982 41.9108 60.6297 42.099C60.3613 42.2873 60.1366 42.5313 59.971 42.8143C59.7705 43.1627 59.6651 43.5577 59.6653 43.9597C59.6655 44.3616 59.7714 44.7564 59.9723 45.1046C60.1733 45.4528 60.4621 45.742 60.8101 45.9434C61.158 46.1447 61.5527 46.251 61.9547 46.2518H67.913C68.7994 46.2518 69.563 45.6101 69.7179 44.7375C69.7919 44.313 69.7144 43.8759 69.4989 43.5028C69.2834 43.1296 68.9437 42.8441 68.5391 42.696C68.3247 42.6188 68.0977 42.5824 67.8699 42.5888C67.9541 42.021 67.8844 41.441 67.668 40.9094C67.4516 40.3778 67.0965 39.9141 66.6398 39.5665C66.0895 39.1499 65.4196 38.922 64.7294 38.9166V38.9184ZM80.2413 38.9184C80.1811 38.9214 80.1221 38.9363 80.0676 38.9621C80.0131 38.9879 79.9643 39.0241 79.9239 39.0688C79.8834 39.1135 79.8522 39.1658 79.832 39.2226C79.8117 39.2793 79.8028 39.3395 79.8058 39.3997C79.8088 39.4599 79.8237 39.5189 79.8495 39.5734C79.8753 39.6278 79.9116 39.6766 79.9563 39.7171C80.001 39.7575 80.0532 39.7887 80.1099 39.8089C80.1667 39.8292 80.2269 39.8381 80.2871 39.8351H82.1204C82.242 39.8351 82.3586 39.7868 82.4445 39.7008C82.5305 39.6149 82.5788 39.4983 82.5788 39.3768C82.5788 39.2552 82.5305 39.1387 82.4445 39.0527C82.3586 38.9668 82.242 38.9184 82.1204 38.9184H80.2871C80.2718 38.9177 80.2565 38.9177 80.2413 38.9184ZM83.9079 38.9184C83.8477 38.9214 83.7887 38.9363 83.7343 38.9621C83.6798 38.9879 83.631 39.0241 83.5905 39.0688C83.5501 39.1135 83.5189 39.1658 83.4986 39.2226C83.4784 39.2793 83.4695 39.3395 83.4725 39.3997C83.4755 39.4599 83.4903 39.5189 83.5162 39.5734C83.542 39.6278 83.5783 39.6766 83.6229 39.7171C83.6676 39.7575 83.7198 39.7887 83.7766 39.8089C83.8334 39.8292 83.8936 39.8381 83.9538 39.8351H84.8704C84.992 39.8351 85.1086 39.7868 85.1945 39.7008C85.2805 39.6149 85.3287 39.4983 85.3287 39.3768C85.3287 39.2552 85.2805 39.1387 85.1945 39.0527C85.1086 38.9668 84.992 38.9184 84.8704 38.9184H83.9538C83.9385 38.9177 83.9232 38.9177 83.9079 38.9184ZM64.7221 39.8333C65.2033 39.8333 65.6828 39.991 66.087 40.2971C66.4806 40.5943 66.7679 41.0105 66.9059 41.484C67.044 41.9575 67.0255 42.463 66.8533 42.9252C66.8527 42.9282 66.8521 42.9313 66.8515 42.9343C66.6366 43.0843 66.4567 43.2792 66.3244 43.5055C66.2943 43.5577 66.2748 43.6153 66.267 43.6751C66.2592 43.7349 66.2632 43.7956 66.2789 43.8538C66.2946 43.912 66.3215 43.9667 66.3583 44.0145C66.395 44.0623 66.4408 44.1023 66.4931 44.1324C66.5453 44.1625 66.603 44.182 66.6628 44.1898C66.7226 44.1976 66.7833 44.1936 66.8415 44.178C66.8997 44.1623 66.9543 44.1353 67.0021 44.0985C67.0499 44.0618 67.09 44.016 67.1201 43.9638C67.2268 43.7764 67.3966 43.6329 67.5993 43.5591C67.8019 43.4852 68.0242 43.4857 68.2265 43.5604C68.6473 43.7144 68.8929 44.1407 68.815 44.5816C68.7786 44.7941 68.6679 44.9869 68.5028 45.1255C68.3376 45.2642 68.1286 45.3397 67.913 45.3388H61.9547C61.6276 45.3376 61.3116 45.2196 61.0638 45.0061C60.8159 44.7927 60.6524 44.4977 60.6027 44.1744C60.5529 43.8511 60.6202 43.5207 60.7925 43.2426C60.9647 42.9645 61.2306 42.757 61.5422 42.6575C61.5733 42.8399 61.6173 43.0224 61.6797 43.2011C61.6983 43.2597 61.7285 43.3139 61.7685 43.3606C61.8085 43.4072 61.8575 43.4453 61.9125 43.4727C61.9676 43.5 62.0275 43.516 62.0889 43.5197C62.1502 43.5234 62.2117 43.5147 62.2696 43.4942C62.3275 43.4736 62.3807 43.4417 62.4261 43.4002C62.4714 43.3587 62.5079 43.3085 62.5334 43.2526C62.5589 43.1967 62.5729 43.1362 62.5746 43.0748C62.5763 43.0133 62.5656 42.9522 62.5432 42.8949C62.4643 42.6696 62.421 42.4333 62.4148 42.1946C62.4206 42.1551 62.4212 42.115 62.4167 42.0754C62.4299 41.474 62.6792 40.902 63.1108 40.483C63.5424 40.0639 64.1215 39.8315 64.723 39.836L64.7221 39.8333ZM78.9038 40.7518C78.5834 40.7532 78.269 40.8386 77.9919 40.9994C77.7148 41.1602 77.4846 41.3909 77.3244 41.6684C77.2943 41.7207 77.2748 41.7783 77.267 41.8381C77.2592 41.8979 77.2632 41.9587 77.2789 42.0169C77.2946 42.0751 77.3215 42.1297 77.3583 42.1775C77.395 42.2253 77.4408 42.2653 77.4931 42.2954C77.5453 42.3255 77.603 42.345 77.6628 42.3528C77.7226 42.3606 77.7833 42.3566 77.8415 42.3409C77.8997 42.3253 77.9543 42.2984 78.0021 42.2616C78.0499 42.2249 78.09 42.179 78.1201 42.1268C78.2268 41.9394 78.3966 41.7959 78.5993 41.722C78.8019 41.6482 79.0242 41.6486 79.2265 41.7234C79.6473 41.8774 79.8929 42.3036 79.815 42.7446C79.7786 42.9571 79.6679 43.1499 79.5028 43.2885C79.3376 43.4271 79.1286 43.5027 78.913 43.5018H73.8787C73.7571 43.5018 73.6405 43.5501 73.5546 43.636C73.4686 43.722 73.4203 43.8385 73.4203 43.9601C73.4203 44.0817 73.4686 44.1982 73.5546 44.2842C73.6405 44.3701 73.7571 44.4184 73.8787 44.4184H78.9203C78.9514 44.4185 78.9824 44.4154 79.0129 44.4093C79.4251 44.3869 79.8176 44.2262 80.127 43.9531C80.4364 43.6799 80.6446 43.3103 80.7179 42.9041C80.7638 42.6398 80.7513 42.3687 80.6812 42.1098C80.6112 41.8508 80.4853 41.6103 80.3124 41.4051C80.1395 41.2 79.9239 41.0353 79.6805 40.9224C79.4372 40.8095 79.1721 40.7513 78.9038 40.7518ZM71.0819 43.5018C71.0217 43.5048 70.9627 43.5196 70.9083 43.5454C70.8538 43.5712 70.805 43.6075 70.7645 43.6522C70.7241 43.6968 70.6929 43.7491 70.6726 43.8059C70.6524 43.8627 70.6435 43.9229 70.6465 43.983C70.6495 44.0432 70.6643 44.1023 70.6902 44.1567C70.716 44.2112 70.7523 44.26 70.7969 44.3004C70.8416 44.3408 70.8939 44.372 70.9506 44.3923C71.0074 44.4125 71.0676 44.4214 71.1278 44.4184H72.0444C72.166 44.4184 72.2826 44.3701 72.3685 44.2842C72.4545 44.1982 72.5028 44.0817 72.5028 43.9601C72.5028 43.8385 72.4545 43.722 72.3685 43.636C72.2826 43.5501 72.166 43.5018 72.0444 43.5018H71.1278C71.1125 43.501 71.0972 43.501 71.0819 43.5018ZM71.9986 45.3351C71.877 45.3412 71.7629 45.3952 71.6812 45.4855C71.5995 45.5757 71.5571 45.6948 71.5632 45.8164C71.5692 45.9379 71.6234 46.0521 71.7136 46.1337C71.8039 46.2154 71.9229 46.2578 72.0444 46.2518H79.3713C79.3915 46.2531 79.4117 46.2531 79.4318 46.2518C79.4492 46.2528 79.4667 46.2528 79.4841 46.2518C79.6463 46.2518 79.8297 46.4214 79.8297 46.7101C79.8297 46.9989 79.6463 47.1666 79.4841 47.1666C79.3625 47.1666 79.2459 47.2149 79.16 47.3008C79.074 47.3868 79.0258 47.5034 79.0258 47.625C79.0258 47.7465 79.074 47.8631 79.16 47.949C79.2459 48.035 79.3625 48.0833 79.4841 48.0833C80.2101 48.0833 80.7463 47.4334 80.7463 46.7101C80.7463 45.9869 80.2101 45.3351 79.4841 45.3351C79.4636 45.3337 79.4431 45.3337 79.4227 45.3351C79.4056 45.3341 79.3884 45.3341 79.3713 45.3351H72.0453C72.0298 45.3343 72.0142 45.3343 71.9986 45.3351Z" fill="white"/>
</g>
<path d="M18.018 73.6H17.118V69H30.718V73.6H29.818V69.8H26.218V84.2H27.818V85H20.018V84.2H21.618V69.8H18.018V73.6ZM49.4234 69V69.8H47.8234V84.2H49.4234V85H41.8234V84.2H43.2234V77.2H38.6234V84.2H40.0234V85H32.4234V84.2H34.0234V69.8H32.4234V69H40.0234V69.8H38.6234V76.4H43.2234V69.8H41.8234V69H49.4234ZM63.3764 85H50.5164V84.2H52.1164V69.8H50.5164V69H63.3764V73.6H62.4764V69.8H56.7164V76.4H61.8764V77.2H56.7164V84.2H62.4764V80.4H63.3764V85ZM87.7648 69V69.8H86.1648V84.2H87.7648V85H80.1648V84.2H81.5648V77.2H76.9648V84.2H78.3648V85H70.7648V84.2H72.3648V69.8H70.7648V69H78.3648V69.8H76.9648V76.4H81.5648V69.8H80.1648V69H87.7648ZM96.6578 69V69.8H95.0578V84.2H96.6578V85H88.8578V84.2H90.4578V69.8H88.8578V69H96.6578ZM113.932 69.8H112.592L108.132 85H103.352L98.8916 69.8H97.5516V69H105.832V69.8H103.672L107.652 83.36L111.632 69.8H109.472V69H113.932V69.8ZM127.689 85H114.829V84.2H116.429V69.8H114.829V69H127.689V73.6H126.789V69.8H121.029V76.4H126.189V77.2H121.029V84.2H126.789V80.4H127.689V85Z" fill="white"/>
<defs>
<linearGradient id="paint0_linear_667_1684" x1="56.3709" y1="19.3081" x2="90.9367" y2="56.8666" gradientUnits="userSpaceOnUse">
<stop stop-color="#24F7BC"/>
<stop offset="1" stop-color="#24C4FC"/>
</linearGradient>
<clipPath id="clip0_667_1684">
<rect width="44" height="44" fill="white" transform="translate(50.5 16)"/>
</clipPath>
</defs>
</svg>
